<mxfile host="Electron" modified="2023-08-27T15:24:53.197Z" agent="Mozilla/5.0 (X11; Linux x86_64) AppleWebKit/537.36 (KHTML, like Gecko) draw.io/21.6.8 Chrome/114.0.5735.289 Electron/25.5.0 Safari/537.36" etag="QeBI-A-GoEajoxkDUWuD" version="21.6.8" type="device">
  <diagram id="C5RBs43oDa-KdzZeNtuy" name="Page-1">
    <mxGraphModel dx="7170" dy="4215" grid="1" gridSize="10" guides="1" tooltips="1" connect="1" arrows="1" fold="1" page="1" pageScale="1" pageWidth="3300" pageHeight="2339" background="none" math="0" shadow="0">
      <root>
        <mxCell id="WIyWlLk6GJQsqaUBKTNV-0" />
        <mxCell id="WIyWlLk6GJQsqaUBKTNV-1" parent="WIyWlLk6GJQsqaUBKTNV-0" />
        <mxCell id="DuqyLDvYoVHCb7NR1-mM-1" value="" style="edgeStyle=orthogonalEdgeStyle;rounded=0;orthogonalLoop=1;jettySize=auto;html=1;" parent="WIyWlLk6GJQsqaUBKTNV-1" source="WIyWlLk6GJQsqaUBKTNV-3" target="DuqyLDvYoVHCb7NR1-mM-0" edge="1">
          <mxGeometry relative="1" as="geometry" />
        </mxCell>
        <mxCell id="WIyWlLk6GJQsqaUBKTNV-3" value="Initialize All Peripherals" style="rounded=1;whiteSpace=wrap;html=1;fontSize=12;glass=0;strokeWidth=1;shadow=0;" parent="WIyWlLk6GJQsqaUBKTNV-1" vertex="1">
          <mxGeometry x="663" y="798" width="120" height="40" as="geometry" />
        </mxCell>
        <mxCell id="DuqyLDvYoVHCb7NR1-mM-52" value="" style="edgeStyle=orthogonalEdgeStyle;rounded=0;orthogonalLoop=1;jettySize=auto;html=1;" parent="WIyWlLk6GJQsqaUBKTNV-1" source="DuqyLDvYoVHCb7NR1-mM-3" target="DuqyLDvYoVHCb7NR1-mM-4" edge="1">
          <mxGeometry relative="1" as="geometry" />
        </mxCell>
        <mxCell id="DuqyLDvYoVHCb7NR1-mM-0" value="Start millis() Timer" style="rounded=1;whiteSpace=wrap;html=1;" parent="WIyWlLk6GJQsqaUBKTNV-1" vertex="1">
          <mxGeometry x="663" y="868" width="120" height="40" as="geometry" />
        </mxCell>
        <mxCell id="DuqyLDvYoVHCb7NR1-mM-6" value="" style="edgeStyle=orthogonalEdgeStyle;rounded=0;orthogonalLoop=1;jettySize=auto;html=1;" parent="WIyWlLk6GJQsqaUBKTNV-1" source="DuqyLDvYoVHCb7NR1-mM-3" target="DuqyLDvYoVHCb7NR1-mM-4" edge="1">
          <mxGeometry relative="1" as="geometry" />
        </mxCell>
        <mxCell id="DuqyLDvYoVHCb7NR1-mM-8" value="" style="edgeStyle=orthogonalEdgeStyle;rounded=0;orthogonalLoop=1;jettySize=auto;html=1;" parent="WIyWlLk6GJQsqaUBKTNV-1" source="DuqyLDvYoVHCb7NR1-mM-4" target="DuqyLDvYoVHCb7NR1-mM-7" edge="1">
          <mxGeometry relative="1" as="geometry" />
        </mxCell>
        <mxCell id="DuqyLDvYoVHCb7NR1-mM-4" value="Display Time on Seven Segment Display&amp;nbsp;" style="rounded=1;whiteSpace=wrap;html=1;" parent="WIyWlLk6GJQsqaUBKTNV-1" vertex="1">
          <mxGeometry x="663" y="1008" width="120" height="50" as="geometry" />
        </mxCell>
        <mxCell id="DuqyLDvYoVHCb7NR1-mM-26" value="" style="edgeStyle=orthogonalEdgeStyle;rounded=0;orthogonalLoop=1;jettySize=auto;html=1;" parent="WIyWlLk6GJQsqaUBKTNV-1" source="DuqyLDvYoVHCb7NR1-mM-7" target="DuqyLDvYoVHCb7NR1-mM-25" edge="1">
          <mxGeometry relative="1" as="geometry" />
        </mxCell>
        <mxCell id="DuqyLDvYoVHCb7NR1-mM-27" value="NO" style="edgeLabel;html=1;align=center;verticalAlign=middle;resizable=0;points=[];" parent="DuqyLDvYoVHCb7NR1-mM-26" vertex="1" connectable="0">
          <mxGeometry x="-0.6211" y="1" relative="1" as="geometry">
            <mxPoint as="offset" />
          </mxGeometry>
        </mxCell>
        <mxCell id="DuqyLDvYoVHCb7NR1-mM-45" style="edgeStyle=orthogonalEdgeStyle;rounded=0;orthogonalLoop=1;jettySize=auto;html=1;" parent="WIyWlLk6GJQsqaUBKTNV-1" source="DuqyLDvYoVHCb7NR1-mM-7" edge="1">
          <mxGeometry relative="1" as="geometry">
            <mxPoint x="843" y="1148" as="targetPoint" />
          </mxGeometry>
        </mxCell>
        <mxCell id="DuqyLDvYoVHCb7NR1-mM-46" value="YES" style="edgeLabel;html=1;align=center;verticalAlign=middle;resizable=0;points=[];" parent="DuqyLDvYoVHCb7NR1-mM-45" vertex="1" connectable="0">
          <mxGeometry x="0.0075" relative="1" as="geometry">
            <mxPoint as="offset" />
          </mxGeometry>
        </mxCell>
        <mxCell id="DuqyLDvYoVHCb7NR1-mM-7" value="Is Alarm &lt;br&gt;Status Flag &lt;br&gt;Set ?" style="rhombus;whiteSpace=wrap;html=1;" parent="WIyWlLk6GJQsqaUBKTNV-1" vertex="1">
          <mxGeometry x="673" y="1098" width="100" height="100" as="geometry" />
        </mxCell>
        <mxCell id="DuqyLDvYoVHCb7NR1-mM-15" value="" style="edgeStyle=orthogonalEdgeStyle;rounded=0;orthogonalLoop=1;jettySize=auto;html=1;entryX=0;entryY=0.5;entryDx=0;entryDy=0;" parent="WIyWlLk6GJQsqaUBKTNV-1" source="DuqyLDvYoVHCb7NR1-mM-13" target="DuqyLDvYoVHCb7NR1-mM-16" edge="1">
          <mxGeometry relative="1" as="geometry">
            <mxPoint x="1048" y="1148" as="targetPoint" />
          </mxGeometry>
        </mxCell>
        <mxCell id="DuqyLDvYoVHCb7NR1-mM-36" value="Yes" style="edgeLabel;html=1;align=center;verticalAlign=middle;resizable=0;points=[];" parent="DuqyLDvYoVHCb7NR1-mM-15" vertex="1" connectable="0">
          <mxGeometry x="-0.4606" y="-1" relative="1" as="geometry">
            <mxPoint as="offset" />
          </mxGeometry>
        </mxCell>
        <mxCell id="DuqyLDvYoVHCb7NR1-mM-13" value="Is Alarm&lt;br&gt;Matched with Current &lt;br&gt;Time ?" style="rhombus;whiteSpace=wrap;html=1;" parent="WIyWlLk6GJQsqaUBKTNV-1" vertex="1">
          <mxGeometry x="847" y="1093" width="110" height="110" as="geometry" />
        </mxCell>
        <mxCell id="DuqyLDvYoVHCb7NR1-mM-18" value="" style="edgeStyle=orthogonalEdgeStyle;rounded=0;orthogonalLoop=1;jettySize=auto;html=1;" parent="WIyWlLk6GJQsqaUBKTNV-1" source="DuqyLDvYoVHCb7NR1-mM-16" target="DuqyLDvYoVHCb7NR1-mM-17" edge="1">
          <mxGeometry relative="1" as="geometry" />
        </mxCell>
        <mxCell id="DuqyLDvYoVHCb7NR1-mM-38" value="Yes" style="edgeLabel;html=1;align=center;verticalAlign=middle;resizable=0;points=[];" parent="DuqyLDvYoVHCb7NR1-mM-18" vertex="1" connectable="0">
          <mxGeometry x="-0.4393" y="1" relative="1" as="geometry">
            <mxPoint as="offset" />
          </mxGeometry>
        </mxCell>
        <mxCell id="DuqyLDvYoVHCb7NR1-mM-16" value="Is Interval&lt;br&gt;&amp;nbsp;Between &lt;br&gt;Previous Toggle &lt;br&gt;Time and Current &lt;br&gt;Time &amp;gt; 500 ms ?&amp;nbsp;" style="rhombus;whiteSpace=wrap;html=1;" parent="WIyWlLk6GJQsqaUBKTNV-1" vertex="1">
          <mxGeometry x="1013" y="1070.5" width="160" height="155" as="geometry" />
        </mxCell>
        <mxCell id="DuqyLDvYoVHCb7NR1-mM-29" style="edgeStyle=orthogonalEdgeStyle;rounded=0;orthogonalLoop=1;jettySize=auto;html=1;" parent="WIyWlLk6GJQsqaUBKTNV-1" source="DuqyLDvYoVHCb7NR1-mM-17" edge="1">
          <mxGeometry relative="1" as="geometry">
            <mxPoint x="723" y="1308" as="targetPoint" />
          </mxGeometry>
        </mxCell>
        <mxCell id="DuqyLDvYoVHCb7NR1-mM-17" value="Toggle Buzzer Pin" style="rounded=1;whiteSpace=wrap;html=1;" parent="WIyWlLk6GJQsqaUBKTNV-1" vertex="1">
          <mxGeometry x="1033" y="1278" width="120" height="60" as="geometry" />
        </mxCell>
        <mxCell id="DuqyLDvYoVHCb7NR1-mM-19" value="Start" style="ellipse;whiteSpace=wrap;html=1;" parent="WIyWlLk6GJQsqaUBKTNV-1" vertex="1">
          <mxGeometry x="673" y="708" width="90" height="50" as="geometry" />
        </mxCell>
        <mxCell id="DuqyLDvYoVHCb7NR1-mM-24" value="" style="endArrow=classic;html=1;rounded=0;" parent="WIyWlLk6GJQsqaUBKTNV-1" edge="1">
          <mxGeometry width="50" height="50" relative="1" as="geometry">
            <mxPoint x="717.9" y="758" as="sourcePoint" />
            <mxPoint x="717.9" y="798" as="targetPoint" />
          </mxGeometry>
        </mxCell>
        <mxCell id="DuqyLDvYoVHCb7NR1-mM-31" value="" style="edgeStyle=orthogonalEdgeStyle;rounded=0;orthogonalLoop=1;jettySize=auto;html=1;entryX=-0.017;entryY=0.514;entryDx=0;entryDy=0;entryPerimeter=0;" parent="WIyWlLk6GJQsqaUBKTNV-1" source="DuqyLDvYoVHCb7NR1-mM-25" target="DuqyLDvYoVHCb7NR1-mM-47" edge="1">
          <mxGeometry relative="1" as="geometry">
            <mxPoint x="823" y="1438" as="targetPoint" />
          </mxGeometry>
        </mxCell>
        <mxCell id="HXVElmv7f4mwqkEVEbzy-18" value="YES" style="edgeLabel;html=1;align=center;verticalAlign=middle;resizable=0;points=[];" parent="DuqyLDvYoVHCb7NR1-mM-31" vertex="1" connectable="0">
          <mxGeometry x="-0.292" relative="1" as="geometry">
            <mxPoint as="offset" />
          </mxGeometry>
        </mxCell>
        <mxCell id="DuqyLDvYoVHCb7NR1-mM-65" style="edgeStyle=orthogonalEdgeStyle;rounded=0;orthogonalLoop=1;jettySize=auto;html=1;entryX=0.5;entryY=0;entryDx=0;entryDy=0;" parent="WIyWlLk6GJQsqaUBKTNV-1" source="DuqyLDvYoVHCb7NR1-mM-25" target="DuqyLDvYoVHCb7NR1-mM-64" edge="1">
          <mxGeometry relative="1" as="geometry" />
        </mxCell>
        <mxCell id="HXVElmv7f4mwqkEVEbzy-19" value="NO" style="edgeLabel;html=1;align=center;verticalAlign=middle;resizable=0;points=[];" parent="DuqyLDvYoVHCb7NR1-mM-65" vertex="1" connectable="0">
          <mxGeometry x="-0.4834" y="-2" relative="1" as="geometry">
            <mxPoint as="offset" />
          </mxGeometry>
        </mxCell>
        <mxCell id="DuqyLDvYoVHCb7NR1-mM-25" value="Is Config &lt;br&gt;Alarm Status Flag Set ?" style="rhombus;whiteSpace=wrap;html=1;" parent="WIyWlLk6GJQsqaUBKTNV-1" vertex="1">
          <mxGeometry x="678" y="1388" width="90" height="100" as="geometry" />
        </mxCell>
        <mxCell id="DuqyLDvYoVHCb7NR1-mM-34" value="" style="endArrow=none;html=1;rounded=0;" parent="WIyWlLk6GJQsqaUBKTNV-1" edge="1">
          <mxGeometry width="50" height="50" relative="1" as="geometry">
            <mxPoint x="903" y="1268" as="sourcePoint" />
            <mxPoint x="903" y="1208" as="targetPoint" />
          </mxGeometry>
        </mxCell>
        <mxCell id="DuqyLDvYoVHCb7NR1-mM-37" value="NO" style="edgeLabel;html=1;align=center;verticalAlign=middle;resizable=0;points=[];" parent="DuqyLDvYoVHCb7NR1-mM-34" vertex="1" connectable="0">
          <mxGeometry x="0.187" y="-1" relative="1" as="geometry">
            <mxPoint as="offset" />
          </mxGeometry>
        </mxCell>
        <mxCell id="DuqyLDvYoVHCb7NR1-mM-35" value="" style="endArrow=classic;html=1;rounded=0;" parent="WIyWlLk6GJQsqaUBKTNV-1" edge="1">
          <mxGeometry width="50" height="50" relative="1" as="geometry">
            <mxPoint x="903" y="1268" as="sourcePoint" />
            <mxPoint x="723" y="1268" as="targetPoint" />
            <Array as="points">
              <mxPoint x="783" y="1268" />
            </Array>
          </mxGeometry>
        </mxCell>
        <mxCell id="DuqyLDvYoVHCb7NR1-mM-39" value="" style="endArrow=none;html=1;rounded=0;" parent="WIyWlLk6GJQsqaUBKTNV-1" edge="1">
          <mxGeometry width="50" height="50" relative="1" as="geometry">
            <mxPoint x="1173" y="1148" as="sourcePoint" />
            <mxPoint x="1233" y="1148" as="targetPoint" />
          </mxGeometry>
        </mxCell>
        <mxCell id="DuqyLDvYoVHCb7NR1-mM-43" value="NO" style="edgeLabel;html=1;align=center;verticalAlign=middle;resizable=0;points=[];" parent="DuqyLDvYoVHCb7NR1-mM-39" vertex="1" connectable="0">
          <mxGeometry x="0.2739" y="-1" relative="1" as="geometry">
            <mxPoint as="offset" />
          </mxGeometry>
        </mxCell>
        <mxCell id="DuqyLDvYoVHCb7NR1-mM-40" value="" style="endArrow=none;html=1;rounded=0;" parent="WIyWlLk6GJQsqaUBKTNV-1" edge="1">
          <mxGeometry width="50" height="50" relative="1" as="geometry">
            <mxPoint x="1233" y="1368" as="sourcePoint" />
            <mxPoint x="1233" y="1148" as="targetPoint" />
          </mxGeometry>
        </mxCell>
        <mxCell id="DuqyLDvYoVHCb7NR1-mM-42" value="" style="endArrow=classic;html=1;rounded=0;" parent="WIyWlLk6GJQsqaUBKTNV-1" edge="1">
          <mxGeometry width="50" height="50" relative="1" as="geometry">
            <mxPoint x="1233" y="1368" as="sourcePoint" />
            <mxPoint x="723" y="1368" as="targetPoint" />
          </mxGeometry>
        </mxCell>
        <mxCell id="DuqyLDvYoVHCb7NR1-mM-50" value="" style="edgeStyle=orthogonalEdgeStyle;rounded=0;orthogonalLoop=1;jettySize=auto;html=1;" parent="WIyWlLk6GJQsqaUBKTNV-1" source="DuqyLDvYoVHCb7NR1-mM-47" target="DuqyLDvYoVHCb7NR1-mM-49" edge="1">
          <mxGeometry relative="1" as="geometry" />
        </mxCell>
        <mxCell id="DuqyLDvYoVHCb7NR1-mM-47" value="Reset Alarm Time" style="rounded=1;whiteSpace=wrap;html=1;" parent="WIyWlLk6GJQsqaUBKTNV-1" vertex="1">
          <mxGeometry x="833" y="1408" width="120" height="60" as="geometry" />
        </mxCell>
        <mxCell id="DuqyLDvYoVHCb7NR1-mM-55" value="" style="edgeStyle=orthogonalEdgeStyle;rounded=0;orthogonalLoop=1;jettySize=auto;html=1;" parent="WIyWlLk6GJQsqaUBKTNV-1" source="DuqyLDvYoVHCb7NR1-mM-49" target="DuqyLDvYoVHCb7NR1-mM-54" edge="1">
          <mxGeometry relative="1" as="geometry" />
        </mxCell>
        <mxCell id="DuqyLDvYoVHCb7NR1-mM-58" value="YES" style="edgeLabel;html=1;align=center;verticalAlign=middle;resizable=0;points=[];" parent="DuqyLDvYoVHCb7NR1-mM-55" vertex="1" connectable="0">
          <mxGeometry x="-0.2741" relative="1" as="geometry">
            <mxPoint as="offset" />
          </mxGeometry>
        </mxCell>
        <mxCell id="DuqyLDvYoVHCb7NR1-mM-49" value="Is Config &lt;br&gt;Alarm Status ON ?" style="rhombus;whiteSpace=wrap;html=1;" parent="WIyWlLk6GJQsqaUBKTNV-1" vertex="1">
          <mxGeometry x="1048" y="1388" width="90" height="100" as="geometry" />
        </mxCell>
        <mxCell id="DuqyLDvYoVHCb7NR1-mM-53" value="" style="edgeStyle=orthogonalEdgeStyle;rounded=0;orthogonalLoop=1;jettySize=auto;html=1;" parent="WIyWlLk6GJQsqaUBKTNV-1" source="DuqyLDvYoVHCb7NR1-mM-0" target="DuqyLDvYoVHCb7NR1-mM-3" edge="1">
          <mxGeometry relative="1" as="geometry">
            <mxPoint x="723" y="908" as="sourcePoint" />
            <mxPoint x="723" y="1008" as="targetPoint" />
          </mxGeometry>
        </mxCell>
        <mxCell id="DuqyLDvYoVHCb7NR1-mM-3" value="Read RTC Time &amp;amp;&lt;br&gt;Combine into 4digit Single Variable" style="rounded=1;whiteSpace=wrap;html=1;" parent="WIyWlLk6GJQsqaUBKTNV-1" vertex="1">
          <mxGeometry x="663" y="928" width="120" height="50" as="geometry" />
        </mxCell>
        <mxCell id="DuqyLDvYoVHCb7NR1-mM-57" value="" style="edgeStyle=orthogonalEdgeStyle;rounded=0;orthogonalLoop=1;jettySize=auto;html=1;" parent="WIyWlLk6GJQsqaUBKTNV-1" source="DuqyLDvYoVHCb7NR1-mM-54" target="DuqyLDvYoVHCb7NR1-mM-56" edge="1">
          <mxGeometry relative="1" as="geometry" />
        </mxCell>
        <mxCell id="DuqyLDvYoVHCb7NR1-mM-54" value="Combine Alarm Time Into Single 4-digit Variable" style="rounded=1;whiteSpace=wrap;html=1;" parent="WIyWlLk6GJQsqaUBKTNV-1" vertex="1">
          <mxGeometry x="1033" y="1528" width="120" height="60" as="geometry" />
        </mxCell>
        <mxCell id="DuqyLDvYoVHCb7NR1-mM-56" value="Show Alarm Time On Display" style="rounded=1;whiteSpace=wrap;html=1;" parent="WIyWlLk6GJQsqaUBKTNV-1" vertex="1">
          <mxGeometry x="1033" y="1628" width="120" height="60" as="geometry" />
        </mxCell>
        <mxCell id="DuqyLDvYoVHCb7NR1-mM-59" value="" style="endArrow=none;html=1;rounded=0;entryX=-0.035;entryY=0.501;entryDx=0;entryDy=0;entryPerimeter=0;" parent="WIyWlLk6GJQsqaUBKTNV-1" target="DuqyLDvYoVHCb7NR1-mM-56" edge="1">
          <mxGeometry width="50" height="50" relative="1" as="geometry">
            <mxPoint x="993" y="1658" as="sourcePoint" />
            <mxPoint x="983" y="1498" as="targetPoint" />
          </mxGeometry>
        </mxCell>
        <mxCell id="DuqyLDvYoVHCb7NR1-mM-60" value="" style="endArrow=classic;html=1;rounded=0;" parent="WIyWlLk6GJQsqaUBKTNV-1" edge="1">
          <mxGeometry width="50" height="50" relative="1" as="geometry">
            <mxPoint x="993" y="1658" as="sourcePoint" />
            <mxPoint x="993" y="1438" as="targetPoint" />
          </mxGeometry>
        </mxCell>
        <mxCell id="DuqyLDvYoVHCb7NR1-mM-61" value="" style="endArrow=none;html=1;rounded=0;exitX=1;exitY=0.5;exitDx=0;exitDy=0;" parent="WIyWlLk6GJQsqaUBKTNV-1" source="DuqyLDvYoVHCb7NR1-mM-49" edge="1">
          <mxGeometry width="50" height="50" relative="1" as="geometry">
            <mxPoint x="1163" y="1498" as="sourcePoint" />
            <mxPoint x="1203" y="1438" as="targetPoint" />
          </mxGeometry>
        </mxCell>
        <mxCell id="HXVElmv7f4mwqkEVEbzy-16" value="NO" style="edgeLabel;html=1;align=center;verticalAlign=middle;resizable=0;points=[];" parent="DuqyLDvYoVHCb7NR1-mM-61" vertex="1" connectable="0">
          <mxGeometry x="0.1538" y="-1" relative="1" as="geometry">
            <mxPoint as="offset" />
          </mxGeometry>
        </mxCell>
        <mxCell id="HXVElmv7f4mwqkEVEbzy-6" style="edgeStyle=orthogonalEdgeStyle;rounded=0;orthogonalLoop=1;jettySize=auto;html=1;entryX=0;entryY=0.5;entryDx=0;entryDy=0;" parent="WIyWlLk6GJQsqaUBKTNV-1" source="DuqyLDvYoVHCb7NR1-mM-64" target="HXVElmv7f4mwqkEVEbzy-2" edge="1">
          <mxGeometry relative="1" as="geometry" />
        </mxCell>
        <mxCell id="HXVElmv7f4mwqkEVEbzy-7" value="YES" style="edgeLabel;html=1;align=center;verticalAlign=middle;resizable=0;points=[];" parent="HXVElmv7f4mwqkEVEbzy-6" vertex="1" connectable="0">
          <mxGeometry x="-0.1876" y="1" relative="1" as="geometry">
            <mxPoint as="offset" />
          </mxGeometry>
        </mxCell>
        <mxCell id="DuqyLDvYoVHCb7NR1-mM-64" value="Is Alarm&lt;br&gt;&amp;nbsp;Status &lt;br&gt;Changed Flag&lt;br&gt;&amp;nbsp;Set ?" style="rhombus;whiteSpace=wrap;html=1;" parent="WIyWlLk6GJQsqaUBKTNV-1" vertex="1">
          <mxGeometry x="660.5" y="1738" width="125" height="132" as="geometry" />
        </mxCell>
        <mxCell id="DuqyLDvYoVHCb7NR1-mM-66" value="" style="endArrow=classic;html=1;rounded=0;" parent="WIyWlLk6GJQsqaUBKTNV-1" edge="1">
          <mxGeometry width="50" height="50" relative="1" as="geometry">
            <mxPoint x="1203" y="1708" as="sourcePoint" />
            <mxPoint x="723" y="1708" as="targetPoint" />
          </mxGeometry>
        </mxCell>
        <mxCell id="DuqyLDvYoVHCb7NR1-mM-67" value="" style="endArrow=none;html=1;rounded=0;" parent="WIyWlLk6GJQsqaUBKTNV-1" edge="1">
          <mxGeometry width="50" height="50" relative="1" as="geometry">
            <mxPoint x="1203" y="1708" as="sourcePoint" />
            <mxPoint x="1203" y="1438" as="targetPoint" />
          </mxGeometry>
        </mxCell>
        <mxCell id="HXVElmv7f4mwqkEVEbzy-4" style="edgeStyle=orthogonalEdgeStyle;rounded=0;orthogonalLoop=1;jettySize=auto;html=1;entryX=0;entryY=0.5;entryDx=0;entryDy=0;" parent="WIyWlLk6GJQsqaUBKTNV-1" source="HXVElmv7f4mwqkEVEbzy-2" target="HXVElmv7f4mwqkEVEbzy-3" edge="1">
          <mxGeometry relative="1" as="geometry" />
        </mxCell>
        <mxCell id="HXVElmv7f4mwqkEVEbzy-8" value="YES" style="edgeLabel;html=1;align=center;verticalAlign=middle;resizable=0;points=[];" parent="HXVElmv7f4mwqkEVEbzy-4" vertex="1" connectable="0">
          <mxGeometry x="-0.2643" relative="1" as="geometry">
            <mxPoint as="offset" />
          </mxGeometry>
        </mxCell>
        <mxCell id="HXVElmv7f4mwqkEVEbzy-10" style="edgeStyle=orthogonalEdgeStyle;rounded=0;orthogonalLoop=1;jettySize=auto;html=1;" parent="WIyWlLk6GJQsqaUBKTNV-1" source="HXVElmv7f4mwqkEVEbzy-2" target="HXVElmv7f4mwqkEVEbzy-9" edge="1">
          <mxGeometry relative="1" as="geometry" />
        </mxCell>
        <mxCell id="HXVElmv7f4mwqkEVEbzy-13" value="NO" style="edgeLabel;html=1;align=center;verticalAlign=middle;resizable=0;points=[];" parent="HXVElmv7f4mwqkEVEbzy-10" vertex="1" connectable="0">
          <mxGeometry x="-0.3819" relative="1" as="geometry">
            <mxPoint as="offset" />
          </mxGeometry>
        </mxCell>
        <mxCell id="HXVElmv7f4mwqkEVEbzy-2" value="Alarm Status ON ?" style="rhombus;whiteSpace=wrap;html=1;" parent="WIyWlLk6GJQsqaUBKTNV-1" vertex="1">
          <mxGeometry x="843" y="1757" width="90" height="94" as="geometry" />
        </mxCell>
        <mxCell id="HXVElmv7f4mwqkEVEbzy-3" value="Show &quot;ON&quot; on&amp;nbsp; The Display" style="rounded=1;whiteSpace=wrap;html=1;" parent="WIyWlLk6GJQsqaUBKTNV-1" vertex="1">
          <mxGeometry x="983" y="1774" width="120" height="60" as="geometry" />
        </mxCell>
        <mxCell id="HXVElmv7f4mwqkEVEbzy-12" style="edgeStyle=orthogonalEdgeStyle;rounded=0;orthogonalLoop=1;jettySize=auto;html=1;" parent="WIyWlLk6GJQsqaUBKTNV-1" source="HXVElmv7f4mwqkEVEbzy-9" edge="1">
          <mxGeometry relative="1" as="geometry">
            <mxPoint x="723" y="1930" as="targetPoint" />
          </mxGeometry>
        </mxCell>
        <mxCell id="HXVElmv7f4mwqkEVEbzy-9" value="Sow &quot;OFF&quot; on The Display" style="rounded=1;whiteSpace=wrap;html=1;" parent="WIyWlLk6GJQsqaUBKTNV-1" vertex="1">
          <mxGeometry x="828" y="1900" width="120" height="60" as="geometry" />
        </mxCell>
        <mxCell id="HXVElmv7f4mwqkEVEbzy-11" value="" style="endArrow=classic;html=1;rounded=0;exitX=0.5;exitY=1;exitDx=0;exitDy=0;entryX=0.5;entryY=0;entryDx=0;entryDy=0;" parent="WIyWlLk6GJQsqaUBKTNV-1" source="DuqyLDvYoVHCb7NR1-mM-64" target="HXVElmv7f4mwqkEVEbzy-23" edge="1">
          <mxGeometry width="50" height="50" relative="1" as="geometry">
            <mxPoint x="723" y="1920" as="sourcePoint" />
            <mxPoint x="723" y="2020" as="targetPoint" />
          </mxGeometry>
        </mxCell>
        <mxCell id="HXVElmv7f4mwqkEVEbzy-22" value="NO" style="edgeLabel;html=1;align=center;verticalAlign=middle;resizable=0;points=[];" parent="HXVElmv7f4mwqkEVEbzy-11" vertex="1" connectable="0">
          <mxGeometry x="-0.7022" y="-1" relative="1" as="geometry">
            <mxPoint as="offset" />
          </mxGeometry>
        </mxCell>
        <mxCell id="HXVElmv7f4mwqkEVEbzy-14" value="" style="endArrow=none;html=1;rounded=0;entryX=0.578;entryY=0.972;entryDx=0;entryDy=0;entryPerimeter=0;" parent="WIyWlLk6GJQsqaUBKTNV-1" target="HXVElmv7f4mwqkEVEbzy-3" edge="1">
          <mxGeometry width="50" height="50" relative="1" as="geometry">
            <mxPoint x="1053" y="1980" as="sourcePoint" />
            <mxPoint x="1053" y="1840" as="targetPoint" />
          </mxGeometry>
        </mxCell>
        <mxCell id="HXVElmv7f4mwqkEVEbzy-15" value="" style="endArrow=classic;html=1;rounded=0;" parent="WIyWlLk6GJQsqaUBKTNV-1" edge="1">
          <mxGeometry width="50" height="50" relative="1" as="geometry">
            <mxPoint x="1053" y="1980" as="sourcePoint" />
            <mxPoint x="723" y="1980" as="targetPoint" />
            <Array as="points">
              <mxPoint x="883" y="1980" />
            </Array>
          </mxGeometry>
        </mxCell>
        <mxCell id="HXVElmv7f4mwqkEVEbzy-23" value="Reset Alarm Status Changed Flag" style="rounded=1;whiteSpace=wrap;html=1;" parent="WIyWlLk6GJQsqaUBKTNV-1" vertex="1">
          <mxGeometry x="665.5" y="2030" width="120" height="60" as="geometry" />
        </mxCell>
        <mxCell id="HXVElmv7f4mwqkEVEbzy-24" value="" style="endArrow=none;html=1;rounded=0;entryX=0;entryY=0.5;entryDx=0;entryDy=0;" parent="WIyWlLk6GJQsqaUBKTNV-1" target="HXVElmv7f4mwqkEVEbzy-23" edge="1">
          <mxGeometry width="50" height="50" relative="1" as="geometry">
            <mxPoint x="543" y="2060" as="sourcePoint" />
            <mxPoint x="473" y="1950" as="targetPoint" />
          </mxGeometry>
        </mxCell>
        <mxCell id="HXVElmv7f4mwqkEVEbzy-25" value="" style="endArrow=none;html=1;rounded=0;" parent="WIyWlLk6GJQsqaUBKTNV-1" edge="1">
          <mxGeometry width="50" height="50" relative="1" as="geometry">
            <mxPoint x="543" y="2060" as="sourcePoint" />
            <mxPoint x="543" y="950" as="targetPoint" />
          </mxGeometry>
        </mxCell>
        <mxCell id="HXVElmv7f4mwqkEVEbzy-28" value="Infinite Loop" style="edgeLabel;html=1;align=center;verticalAlign=middle;resizable=0;points=[];" parent="HXVElmv7f4mwqkEVEbzy-25" vertex="1" connectable="0">
          <mxGeometry x="0.1477" y="3" relative="1" as="geometry">
            <mxPoint as="offset" />
          </mxGeometry>
        </mxCell>
        <mxCell id="HXVElmv7f4mwqkEVEbzy-26" value="" style="endArrow=classic;html=1;rounded=0;entryX=-0.024;entryY=0.412;entryDx=0;entryDy=0;entryPerimeter=0;" parent="WIyWlLk6GJQsqaUBKTNV-1" target="DuqyLDvYoVHCb7NR1-mM-3" edge="1">
          <mxGeometry width="50" height="50" relative="1" as="geometry">
            <mxPoint x="543" y="950" as="sourcePoint" />
            <mxPoint x="593" y="900" as="targetPoint" />
          </mxGeometry>
        </mxCell>
        <mxCell id="HXVElmv7f4mwqkEVEbzy-29" value="" style="shape=flexArrow;endArrow=classic;html=1;rounded=0;" parent="WIyWlLk6GJQsqaUBKTNV-1" edge="1">
          <mxGeometry width="50" height="50" relative="1" as="geometry">
            <mxPoint x="2050" y="120" as="sourcePoint" />
            <mxPoint x="2120" y="170" as="targetPoint" />
          </mxGeometry>
        </mxCell>
        <mxCell id="HXVElmv7f4mwqkEVEbzy-31" value="" style="shape=flexArrow;endArrow=classic;html=1;rounded=0;" parent="WIyWlLk6GJQsqaUBKTNV-1" edge="1">
          <mxGeometry width="50" height="50" relative="1" as="geometry">
            <mxPoint x="2020" y="150" as="sourcePoint" />
            <mxPoint x="2090" y="200" as="targetPoint" />
          </mxGeometry>
        </mxCell>
        <mxCell id="PMI9C2BxiQQWEbcm79Ut-1" value="" style="edgeStyle=orthogonalEdgeStyle;rounded=0;orthogonalLoop=1;jettySize=auto;html=1;" edge="1" parent="WIyWlLk6GJQsqaUBKTNV-1" source="HXVElmv7f4mwqkEVEbzy-32" target="PMI9C2BxiQQWEbcm79Ut-0">
          <mxGeometry relative="1" as="geometry" />
        </mxCell>
        <mxCell id="HXVElmv7f4mwqkEVEbzy-32" value="External Interrupt Occured Due to Button Press" style="ellipse;whiteSpace=wrap;html=1;" parent="WIyWlLk6GJQsqaUBKTNV-1" vertex="1">
          <mxGeometry x="2080" y="176" width="210" height="124" as="geometry" />
        </mxCell>
        <mxCell id="PMI9C2BxiQQWEbcm79Ut-4" value="" style="edgeStyle=orthogonalEdgeStyle;rounded=0;orthogonalLoop=1;jettySize=auto;html=1;" edge="1" parent="WIyWlLk6GJQsqaUBKTNV-1" source="PMI9C2BxiQQWEbcm79Ut-0">
          <mxGeometry relative="1" as="geometry">
            <mxPoint x="2330" y="406" as="targetPoint" />
          </mxGeometry>
        </mxCell>
        <mxCell id="PMI9C2BxiQQWEbcm79Ut-5" value="NO" style="edgeLabel;html=1;align=center;verticalAlign=middle;resizable=0;points=[];" vertex="1" connectable="0" parent="PMI9C2BxiQQWEbcm79Ut-4">
          <mxGeometry x="0.1883" y="1" relative="1" as="geometry">
            <mxPoint as="offset" />
          </mxGeometry>
        </mxCell>
        <mxCell id="PMI9C2BxiQQWEbcm79Ut-8" value="" style="edgeStyle=orthogonalEdgeStyle;rounded=0;orthogonalLoop=1;jettySize=auto;html=1;" edge="1" parent="WIyWlLk6GJQsqaUBKTNV-1" source="PMI9C2BxiQQWEbcm79Ut-0">
          <mxGeometry relative="1" as="geometry">
            <mxPoint x="2185" y="540" as="targetPoint" />
          </mxGeometry>
        </mxCell>
        <mxCell id="PMI9C2BxiQQWEbcm79Ut-0" value="Is the time &lt;br&gt;delay between &lt;br&gt;current &amp;amp;prev &lt;br&gt;interrupt&amp;nbsp;&lt;br&gt;&amp;gt; 500ms ?" style="rhombus;whiteSpace=wrap;html=1;" vertex="1" parent="WIyWlLk6GJQsqaUBKTNV-1">
          <mxGeometry x="2122.5" y="336" width="125" height="140" as="geometry" />
        </mxCell>
        <mxCell id="PMI9C2BxiQQWEbcm79Ut-11" value="" style="edgeStyle=orthogonalEdgeStyle;rounded=0;orthogonalLoop=1;jettySize=auto;html=1;" edge="1" parent="WIyWlLk6GJQsqaUBKTNV-1" target="PMI9C2BxiQQWEbcm79Ut-0">
          <mxGeometry relative="1" as="geometry">
            <mxPoint x="2185" y="510" as="sourcePoint" />
          </mxGeometry>
        </mxCell>
        <mxCell id="PMI9C2BxiQQWEbcm79Ut-12" value="YES" style="edgeLabel;html=1;align=center;verticalAlign=middle;resizable=0;points=[];" vertex="1" connectable="0" parent="PMI9C2BxiQQWEbcm79Ut-11">
          <mxGeometry x="-0.7117" y="1" relative="1" as="geometry">
            <mxPoint as="offset" />
          </mxGeometry>
        </mxCell>
        <mxCell id="PMI9C2BxiQQWEbcm79Ut-17" value="" style="edgeStyle=orthogonalEdgeStyle;rounded=0;orthogonalLoop=1;jettySize=auto;html=1;" edge="1" parent="WIyWlLk6GJQsqaUBKTNV-1" source="PMI9C2BxiQQWEbcm79Ut-2" target="PMI9C2BxiQQWEbcm79Ut-13">
          <mxGeometry relative="1" as="geometry" />
        </mxCell>
        <mxCell id="PMI9C2BxiQQWEbcm79Ut-2" value="Disable All Interrupts" style="rounded=1;whiteSpace=wrap;html=1;" vertex="1" parent="WIyWlLk6GJQsqaUBKTNV-1">
          <mxGeometry x="2125" y="540" width="120" height="60" as="geometry" />
        </mxCell>
        <mxCell id="PMI9C2BxiQQWEbcm79Ut-22" value="" style="edgeStyle=orthogonalEdgeStyle;rounded=0;orthogonalLoop=1;jettySize=auto;html=1;" edge="1" parent="WIyWlLk6GJQsqaUBKTNV-1" source="PMI9C2BxiQQWEbcm79Ut-13" target="PMI9C2BxiQQWEbcm79Ut-18">
          <mxGeometry relative="1" as="geometry" />
        </mxCell>
        <mxCell id="PMI9C2BxiQQWEbcm79Ut-42" value="NO" style="edgeLabel;html=1;align=center;verticalAlign=middle;resizable=0;points=[];" vertex="1" connectable="0" parent="PMI9C2BxiQQWEbcm79Ut-22">
          <mxGeometry x="-0.25" y="-2" relative="1" as="geometry">
            <mxPoint as="offset" />
          </mxGeometry>
        </mxCell>
        <mxCell id="PMI9C2BxiQQWEbcm79Ut-27" value="" style="edgeStyle=orthogonalEdgeStyle;rounded=0;orthogonalLoop=1;jettySize=auto;html=1;" edge="1" parent="WIyWlLk6GJQsqaUBKTNV-1" source="PMI9C2BxiQQWEbcm79Ut-13" target="PMI9C2BxiQQWEbcm79Ut-26">
          <mxGeometry relative="1" as="geometry" />
        </mxCell>
        <mxCell id="PMI9C2BxiQQWEbcm79Ut-41" value="YES" style="edgeLabel;html=1;align=center;verticalAlign=middle;resizable=0;points=[];" vertex="1" connectable="0" parent="PMI9C2BxiQQWEbcm79Ut-27">
          <mxGeometry x="-0.2784" y="2" relative="1" as="geometry">
            <mxPoint as="offset" />
          </mxGeometry>
        </mxCell>
        <mxCell id="PMI9C2BxiQQWEbcm79Ut-13" value="Is &lt;br&gt;Interrupt &lt;br&gt;Source &lt;br&gt;&amp;nbsp;Config Alarm Button ?" style="rhombus;whiteSpace=wrap;html=1;" vertex="1" parent="WIyWlLk6GJQsqaUBKTNV-1">
          <mxGeometry x="2130" y="666" width="110" height="110" as="geometry" />
        </mxCell>
        <mxCell id="PMI9C2BxiQQWEbcm79Ut-23" value="" style="edgeStyle=orthogonalEdgeStyle;rounded=0;orthogonalLoop=1;jettySize=auto;html=1;" edge="1" parent="WIyWlLk6GJQsqaUBKTNV-1" source="PMI9C2BxiQQWEbcm79Ut-18" target="PMI9C2BxiQQWEbcm79Ut-19">
          <mxGeometry relative="1" as="geometry" />
        </mxCell>
        <mxCell id="PMI9C2BxiQQWEbcm79Ut-43" value="NO" style="edgeLabel;html=1;align=center;verticalAlign=middle;resizable=0;points=[];" vertex="1" connectable="0" parent="PMI9C2BxiQQWEbcm79Ut-23">
          <mxGeometry x="-0.2424" y="2" relative="1" as="geometry">
            <mxPoint as="offset" />
          </mxGeometry>
        </mxCell>
        <mxCell id="PMI9C2BxiQQWEbcm79Ut-47" value="" style="edgeStyle=orthogonalEdgeStyle;rounded=0;orthogonalLoop=1;jettySize=auto;html=1;" edge="1" parent="WIyWlLk6GJQsqaUBKTNV-1" source="PMI9C2BxiQQWEbcm79Ut-18" target="PMI9C2BxiQQWEbcm79Ut-46">
          <mxGeometry relative="1" as="geometry" />
        </mxCell>
        <mxCell id="PMI9C2BxiQQWEbcm79Ut-18" value="Is &lt;br&gt;Interrupt &lt;br&gt;Source &lt;br&gt;&amp;nbsp;Alarm on/off&lt;br&gt;Button ?" style="rhombus;whiteSpace=wrap;html=1;" vertex="1" parent="WIyWlLk6GJQsqaUBKTNV-1">
          <mxGeometry x="2130" y="836" width="110" height="110" as="geometry" />
        </mxCell>
        <mxCell id="PMI9C2BxiQQWEbcm79Ut-24" value="" style="edgeStyle=orthogonalEdgeStyle;rounded=0;orthogonalLoop=1;jettySize=auto;html=1;" edge="1" parent="WIyWlLk6GJQsqaUBKTNV-1" source="PMI9C2BxiQQWEbcm79Ut-19" target="PMI9C2BxiQQWEbcm79Ut-20">
          <mxGeometry relative="1" as="geometry" />
        </mxCell>
        <mxCell id="PMI9C2BxiQQWEbcm79Ut-44" value="NO" style="edgeLabel;html=1;align=center;verticalAlign=middle;resizable=0;points=[];" vertex="1" connectable="0" parent="PMI9C2BxiQQWEbcm79Ut-24">
          <mxGeometry x="-0.2444" relative="1" as="geometry">
            <mxPoint as="offset" />
          </mxGeometry>
        </mxCell>
        <mxCell id="PMI9C2BxiQQWEbcm79Ut-62" value="" style="edgeStyle=orthogonalEdgeStyle;rounded=0;orthogonalLoop=1;jettySize=auto;html=1;" edge="1" parent="WIyWlLk6GJQsqaUBKTNV-1" source="PMI9C2BxiQQWEbcm79Ut-19" target="PMI9C2BxiQQWEbcm79Ut-61">
          <mxGeometry relative="1" as="geometry" />
        </mxCell>
        <mxCell id="PMI9C2BxiQQWEbcm79Ut-19" value="Is &lt;br&gt;Interrupt &lt;br&gt;Source &lt;br&gt;&amp;nbsp;Hour &lt;br&gt;Button ?" style="rhombus;whiteSpace=wrap;html=1;" vertex="1" parent="WIyWlLk6GJQsqaUBKTNV-1">
          <mxGeometry x="2130" y="1010" width="110" height="110" as="geometry" />
        </mxCell>
        <mxCell id="PMI9C2BxiQQWEbcm79Ut-25" value="" style="edgeStyle=orthogonalEdgeStyle;rounded=0;orthogonalLoop=1;jettySize=auto;html=1;entryX=0.5;entryY=0;entryDx=0;entryDy=0;" edge="1" parent="WIyWlLk6GJQsqaUBKTNV-1" source="PMI9C2BxiQQWEbcm79Ut-20" target="PMI9C2BxiQQWEbcm79Ut-28">
          <mxGeometry relative="1" as="geometry">
            <mxPoint x="2185" y="1840" as="targetPoint" />
          </mxGeometry>
        </mxCell>
        <mxCell id="PMI9C2BxiQQWEbcm79Ut-45" value="NO" style="edgeLabel;html=1;align=center;verticalAlign=middle;resizable=0;points=[];" vertex="1" connectable="0" parent="PMI9C2BxiQQWEbcm79Ut-25">
          <mxGeometry x="-0.2956" y="-2" relative="1" as="geometry">
            <mxPoint as="offset" />
          </mxGeometry>
        </mxCell>
        <mxCell id="PMI9C2BxiQQWEbcm79Ut-119" style="edgeStyle=orthogonalEdgeStyle;rounded=0;orthogonalLoop=1;jettySize=auto;html=1;entryX=0;entryY=0.5;entryDx=0;entryDy=0;" edge="1" parent="WIyWlLk6GJQsqaUBKTNV-1" source="PMI9C2BxiQQWEbcm79Ut-20" target="PMI9C2BxiQQWEbcm79Ut-104">
          <mxGeometry relative="1" as="geometry" />
        </mxCell>
        <mxCell id="PMI9C2BxiQQWEbcm79Ut-20" value="Is &lt;br&gt;Interrupt &lt;br&gt;Source &lt;br&gt;&amp;nbsp;Config Alarm Button" style="rhombus;whiteSpace=wrap;html=1;" vertex="1" parent="WIyWlLk6GJQsqaUBKTNV-1">
          <mxGeometry x="2130" y="1413.5" width="110" height="110" as="geometry" />
        </mxCell>
        <mxCell id="PMI9C2BxiQQWEbcm79Ut-26" value="Toggle Config Alarm Flag" style="whiteSpace=wrap;html=1;" vertex="1" parent="WIyWlLk6GJQsqaUBKTNV-1">
          <mxGeometry x="2410" y="691" width="120" height="60" as="geometry" />
        </mxCell>
        <mxCell id="PMI9C2BxiQQWEbcm79Ut-32" value="" style="edgeStyle=orthogonalEdgeStyle;rounded=0;orthogonalLoop=1;jettySize=auto;html=1;" edge="1" parent="WIyWlLk6GJQsqaUBKTNV-1" source="PMI9C2BxiQQWEbcm79Ut-28" target="PMI9C2BxiQQWEbcm79Ut-31">
          <mxGeometry relative="1" as="geometry" />
        </mxCell>
        <mxCell id="PMI9C2BxiQQWEbcm79Ut-28" value="Enable All Interrupts" style="rounded=1;whiteSpace=wrap;html=1;" vertex="1" parent="WIyWlLk6GJQsqaUBKTNV-1">
          <mxGeometry x="2125" y="1890" width="120" height="60" as="geometry" />
        </mxCell>
        <mxCell id="PMI9C2BxiQQWEbcm79Ut-31" value="Return&amp;nbsp;" style="strokeWidth=2;html=1;shape=mxgraph.flowchart.terminator;whiteSpace=wrap;" vertex="1" parent="WIyWlLk6GJQsqaUBKTNV-1">
          <mxGeometry x="2135" y="2030" width="100" height="60" as="geometry" />
        </mxCell>
        <mxCell id="PMI9C2BxiQQWEbcm79Ut-33" value="Return" style="strokeWidth=2;html=1;shape=mxgraph.flowchart.terminator;whiteSpace=wrap;" vertex="1" parent="WIyWlLk6GJQsqaUBKTNV-1">
          <mxGeometry x="2335" y="376" width="100" height="60" as="geometry" />
        </mxCell>
        <mxCell id="PMI9C2BxiQQWEbcm79Ut-38" value="" style="endArrow=none;html=1;rounded=0;" edge="1" parent="WIyWlLk6GJQsqaUBKTNV-1" source="PMI9C2BxiQQWEbcm79Ut-26">
          <mxGeometry width="50" height="50" relative="1" as="geometry">
            <mxPoint x="2435" y="721" as="sourcePoint" />
            <mxPoint x="2740" y="720" as="targetPoint" />
          </mxGeometry>
        </mxCell>
        <mxCell id="PMI9C2BxiQQWEbcm79Ut-39" value="" style="endArrow=none;html=1;rounded=0;" edge="1" parent="WIyWlLk6GJQsqaUBKTNV-1">
          <mxGeometry width="50" height="50" relative="1" as="geometry">
            <mxPoint x="2740" y="1920" as="sourcePoint" />
            <mxPoint x="2740" y="720" as="targetPoint" />
          </mxGeometry>
        </mxCell>
        <mxCell id="PMI9C2BxiQQWEbcm79Ut-49" value="" style="edgeStyle=orthogonalEdgeStyle;rounded=0;orthogonalLoop=1;jettySize=auto;html=1;" edge="1" parent="WIyWlLk6GJQsqaUBKTNV-1" source="PMI9C2BxiQQWEbcm79Ut-46" target="PMI9C2BxiQQWEbcm79Ut-48">
          <mxGeometry relative="1" as="geometry" />
        </mxCell>
        <mxCell id="PMI9C2BxiQQWEbcm79Ut-46" value="Toggle Alarm Status" style="whiteSpace=wrap;html=1;" vertex="1" parent="WIyWlLk6GJQsqaUBKTNV-1">
          <mxGeometry x="2280" y="861" width="120" height="60" as="geometry" />
        </mxCell>
        <mxCell id="PMI9C2BxiQQWEbcm79Ut-53" value="" style="edgeStyle=orthogonalEdgeStyle;rounded=0;orthogonalLoop=1;jettySize=auto;html=1;" edge="1" parent="WIyWlLk6GJQsqaUBKTNV-1" source="PMI9C2BxiQQWEbcm79Ut-48" target="PMI9C2BxiQQWEbcm79Ut-50">
          <mxGeometry relative="1" as="geometry" />
        </mxCell>
        <mxCell id="PMI9C2BxiQQWEbcm79Ut-48" value="Set Alarm_Status Changed Flag" style="whiteSpace=wrap;html=1;" vertex="1" parent="WIyWlLk6GJQsqaUBKTNV-1">
          <mxGeometry x="2455" y="861" width="120" height="60" as="geometry" />
        </mxCell>
        <mxCell id="PMI9C2BxiQQWEbcm79Ut-55" value="" style="edgeStyle=orthogonalEdgeStyle;rounded=0;orthogonalLoop=1;jettySize=auto;html=1;" edge="1" parent="WIyWlLk6GJQsqaUBKTNV-1" source="PMI9C2BxiQQWEbcm79Ut-50" target="PMI9C2BxiQQWEbcm79Ut-54">
          <mxGeometry relative="1" as="geometry" />
        </mxCell>
        <mxCell id="PMI9C2BxiQQWEbcm79Ut-58" value="YES" style="edgeLabel;html=1;align=center;verticalAlign=middle;resizable=0;points=[];" vertex="1" connectable="0" parent="PMI9C2BxiQQWEbcm79Ut-55">
          <mxGeometry x="-0.749" y="-1" relative="1" as="geometry">
            <mxPoint x="1" y="9" as="offset" />
          </mxGeometry>
        </mxCell>
        <mxCell id="PMI9C2BxiQQWEbcm79Ut-89" style="edgeStyle=orthogonalEdgeStyle;rounded=0;orthogonalLoop=1;jettySize=auto;html=1;" edge="1" parent="WIyWlLk6GJQsqaUBKTNV-1" source="PMI9C2BxiQQWEbcm79Ut-50">
          <mxGeometry relative="1" as="geometry">
            <mxPoint x="2739.9999999999995" y="891" as="targetPoint" />
          </mxGeometry>
        </mxCell>
        <mxCell id="PMI9C2BxiQQWEbcm79Ut-90" value="NO" style="edgeLabel;html=1;align=center;verticalAlign=middle;resizable=0;points=[];" vertex="1" connectable="0" parent="PMI9C2BxiQQWEbcm79Ut-89">
          <mxGeometry x="-0.3933" y="1" relative="1" as="geometry">
            <mxPoint as="offset" />
          </mxGeometry>
        </mxCell>
        <mxCell id="PMI9C2BxiQQWEbcm79Ut-50" value="Is Alarm Status off ?" style="rhombus;whiteSpace=wrap;html=1;" vertex="1" parent="WIyWlLk6GJQsqaUBKTNV-1">
          <mxGeometry x="2605" y="851" width="80" height="80" as="geometry" />
        </mxCell>
        <mxCell id="PMI9C2BxiQQWEbcm79Ut-91" style="edgeStyle=orthogonalEdgeStyle;rounded=0;orthogonalLoop=1;jettySize=auto;html=1;" edge="1" parent="WIyWlLk6GJQsqaUBKTNV-1" source="PMI9C2BxiQQWEbcm79Ut-54">
          <mxGeometry relative="1" as="geometry">
            <mxPoint x="2740" y="991" as="targetPoint" />
          </mxGeometry>
        </mxCell>
        <mxCell id="PMI9C2BxiQQWEbcm79Ut-54" value="Turn off Alarm" style="whiteSpace=wrap;html=1;" vertex="1" parent="WIyWlLk6GJQsqaUBKTNV-1">
          <mxGeometry x="2610" y="976" width="70" height="30" as="geometry" />
        </mxCell>
        <mxCell id="PMI9C2BxiQQWEbcm79Ut-64" value="" style="edgeStyle=orthogonalEdgeStyle;rounded=0;orthogonalLoop=1;jettySize=auto;html=1;" edge="1" parent="WIyWlLk6GJQsqaUBKTNV-1" source="PMI9C2BxiQQWEbcm79Ut-61">
          <mxGeometry relative="1" as="geometry">
            <mxPoint x="2472.5" y="1065" as="targetPoint" />
          </mxGeometry>
        </mxCell>
        <mxCell id="PMI9C2BxiQQWEbcm79Ut-67" value="YES" style="edgeLabel;html=1;align=center;verticalAlign=middle;resizable=0;points=[];" vertex="1" connectable="0" parent="PMI9C2BxiQQWEbcm79Ut-64">
          <mxGeometry x="-0.0545" relative="1" as="geometry">
            <mxPoint as="offset" />
          </mxGeometry>
        </mxCell>
        <mxCell id="PMI9C2BxiQQWEbcm79Ut-79" style="edgeStyle=orthogonalEdgeStyle;rounded=0;orthogonalLoop=1;jettySize=auto;html=1;exitX=0.5;exitY=1;exitDx=0;exitDy=0;" edge="1" parent="WIyWlLk6GJQsqaUBKTNV-1" source="PMI9C2BxiQQWEbcm79Ut-61">
          <mxGeometry relative="1" as="geometry">
            <mxPoint x="2337.38" y="1210" as="targetPoint" />
            <mxPoint x="2337.3872463768116" y="1127.491990846682" as="sourcePoint" />
          </mxGeometry>
        </mxCell>
        <mxCell id="PMI9C2BxiQQWEbcm79Ut-82" value="NO" style="edgeLabel;html=1;align=center;verticalAlign=middle;resizable=0;points=[];" vertex="1" connectable="0" parent="PMI9C2BxiQQWEbcm79Ut-79">
          <mxGeometry x="-0.3574" y="2" relative="1" as="geometry">
            <mxPoint as="offset" />
          </mxGeometry>
        </mxCell>
        <mxCell id="PMI9C2BxiQQWEbcm79Ut-61" value="Is &lt;br&gt;Config_Alarm Status &lt;br&gt;flag Set ?" style="rhombus;whiteSpace=wrap;html=1;" vertex="1" parent="WIyWlLk6GJQsqaUBKTNV-1">
          <mxGeometry x="2290" y="1012.5" width="95" height="105" as="geometry" />
        </mxCell>
        <mxCell id="PMI9C2BxiQQWEbcm79Ut-72" value="" style="edgeStyle=orthogonalEdgeStyle;rounded=0;orthogonalLoop=1;jettySize=auto;html=1;" edge="1" parent="WIyWlLk6GJQsqaUBKTNV-1" source="PMI9C2BxiQQWEbcm79Ut-68" target="PMI9C2BxiQQWEbcm79Ut-71">
          <mxGeometry relative="1" as="geometry" />
        </mxCell>
        <mxCell id="PMI9C2BxiQQWEbcm79Ut-74" value="YES" style="edgeLabel;html=1;align=center;verticalAlign=middle;resizable=0;points=[];" vertex="1" connectable="0" parent="PMI9C2BxiQQWEbcm79Ut-72">
          <mxGeometry x="-0.2346" y="-2" relative="1" as="geometry">
            <mxPoint as="offset" />
          </mxGeometry>
        </mxCell>
        <mxCell id="PMI9C2BxiQQWEbcm79Ut-76" value="" style="edgeStyle=orthogonalEdgeStyle;rounded=0;orthogonalLoop=1;jettySize=auto;html=1;" edge="1" parent="WIyWlLk6GJQsqaUBKTNV-1" source="PMI9C2BxiQQWEbcm79Ut-68" target="PMI9C2BxiQQWEbcm79Ut-75">
          <mxGeometry relative="1" as="geometry" />
        </mxCell>
        <mxCell id="PMI9C2BxiQQWEbcm79Ut-77" value="NO" style="edgeLabel;html=1;align=center;verticalAlign=middle;resizable=0;points=[];" vertex="1" connectable="0" parent="PMI9C2BxiQQWEbcm79Ut-76">
          <mxGeometry x="-0.5333" y="2" relative="1" as="geometry">
            <mxPoint as="offset" />
          </mxGeometry>
        </mxCell>
        <mxCell id="PMI9C2BxiQQWEbcm79Ut-68" value="Is Alarm &lt;br&gt;Hour &amp;lt;= 22 ?" style="rhombus;whiteSpace=wrap;html=1;" vertex="1" parent="WIyWlLk6GJQsqaUBKTNV-1">
          <mxGeometry x="2470" y="1015" width="90" height="100" as="geometry" />
        </mxCell>
        <mxCell id="PMI9C2BxiQQWEbcm79Ut-73" style="edgeStyle=orthogonalEdgeStyle;rounded=0;orthogonalLoop=1;jettySize=auto;html=1;" edge="1" parent="WIyWlLk6GJQsqaUBKTNV-1" source="PMI9C2BxiQQWEbcm79Ut-71">
          <mxGeometry relative="1" as="geometry">
            <mxPoint x="2740" y="1065" as="targetPoint" />
          </mxGeometry>
        </mxCell>
        <mxCell id="PMI9C2BxiQQWEbcm79Ut-71" value="Increase alarm hour by 1" style="rounded=0;whiteSpace=wrap;html=1;" vertex="1" parent="WIyWlLk6GJQsqaUBKTNV-1">
          <mxGeometry x="2615" y="1043.5" width="70" height="43" as="geometry" />
        </mxCell>
        <mxCell id="PMI9C2BxiQQWEbcm79Ut-86" style="edgeStyle=orthogonalEdgeStyle;rounded=0;orthogonalLoop=1;jettySize=auto;html=1;" edge="1" parent="WIyWlLk6GJQsqaUBKTNV-1" source="PMI9C2BxiQQWEbcm79Ut-75">
          <mxGeometry relative="1" as="geometry">
            <mxPoint x="2740" y="1182" as="targetPoint" />
          </mxGeometry>
        </mxCell>
        <mxCell id="PMI9C2BxiQQWEbcm79Ut-75" value="Set Alarm hour to zero" style="whiteSpace=wrap;html=1;" vertex="1" parent="WIyWlLk6GJQsqaUBKTNV-1">
          <mxGeometry x="2477.5" y="1160" width="75" height="44" as="geometry" />
        </mxCell>
        <mxCell id="PMI9C2BxiQQWEbcm79Ut-87" style="edgeStyle=orthogonalEdgeStyle;rounded=0;orthogonalLoop=1;jettySize=auto;html=1;" edge="1" parent="WIyWlLk6GJQsqaUBKTNV-1" source="PMI9C2BxiQQWEbcm79Ut-83" target="PMI9C2BxiQQWEbcm79Ut-85">
          <mxGeometry relative="1" as="geometry" />
        </mxCell>
        <mxCell id="PMI9C2BxiQQWEbcm79Ut-92" value="YES" style="edgeLabel;html=1;align=center;verticalAlign=middle;resizable=0;points=[];" vertex="1" connectable="0" parent="PMI9C2BxiQQWEbcm79Ut-87">
          <mxGeometry x="-0.1487" relative="1" as="geometry">
            <mxPoint as="offset" />
          </mxGeometry>
        </mxCell>
        <mxCell id="PMI9C2BxiQQWEbcm79Ut-94" value="" style="edgeStyle=orthogonalEdgeStyle;rounded=0;orthogonalLoop=1;jettySize=auto;html=1;entryX=0.5;entryY=0;entryDx=0;entryDy=0;" edge="1" parent="WIyWlLk6GJQsqaUBKTNV-1" source="PMI9C2BxiQQWEbcm79Ut-83" target="PMI9C2BxiQQWEbcm79Ut-95">
          <mxGeometry relative="1" as="geometry">
            <mxPoint x="2337.5" y="1343" as="targetPoint" />
            <Array as="points" />
          </mxGeometry>
        </mxCell>
        <mxCell id="PMI9C2BxiQQWEbcm79Ut-97" value="NO" style="edgeLabel;html=1;align=center;verticalAlign=middle;resizable=0;points=[];" vertex="1" connectable="0" parent="PMI9C2BxiQQWEbcm79Ut-94">
          <mxGeometry x="-0.4852" relative="1" as="geometry">
            <mxPoint as="offset" />
          </mxGeometry>
        </mxCell>
        <mxCell id="PMI9C2BxiQQWEbcm79Ut-83" value="Is Time&lt;br&gt;Hour &amp;lt;= 22 ?" style="rhombus;whiteSpace=wrap;html=1;" vertex="1" parent="WIyWlLk6GJQsqaUBKTNV-1">
          <mxGeometry x="2292.5" y="1210" width="90" height="100" as="geometry" />
        </mxCell>
        <mxCell id="PMI9C2BxiQQWEbcm79Ut-88" style="edgeStyle=orthogonalEdgeStyle;rounded=0;orthogonalLoop=1;jettySize=auto;html=1;" edge="1" parent="WIyWlLk6GJQsqaUBKTNV-1" source="PMI9C2BxiQQWEbcm79Ut-85">
          <mxGeometry relative="1" as="geometry">
            <mxPoint x="2740" y="1260" as="targetPoint" />
          </mxGeometry>
        </mxCell>
        <mxCell id="PMI9C2BxiQQWEbcm79Ut-85" value="Increase alarm hour by 1" style="rounded=0;whiteSpace=wrap;html=1;" vertex="1" parent="WIyWlLk6GJQsqaUBKTNV-1">
          <mxGeometry x="2480" y="1238.5" width="70" height="43" as="geometry" />
        </mxCell>
        <mxCell id="PMI9C2BxiQQWEbcm79Ut-99" style="edgeStyle=orthogonalEdgeStyle;rounded=0;orthogonalLoop=1;jettySize=auto;html=1;" edge="1" parent="WIyWlLk6GJQsqaUBKTNV-1" source="PMI9C2BxiQQWEbcm79Ut-95">
          <mxGeometry relative="1" as="geometry">
            <mxPoint x="2740" y="1370" as="targetPoint" />
          </mxGeometry>
        </mxCell>
        <mxCell id="PMI9C2BxiQQWEbcm79Ut-95" value="Set time hour to zero" style="whiteSpace=wrap;html=1;" vertex="1" parent="WIyWlLk6GJQsqaUBKTNV-1">
          <mxGeometry x="2300" y="1348" width="75" height="44" as="geometry" />
        </mxCell>
        <mxCell id="PMI9C2BxiQQWEbcm79Ut-100" value="" style="edgeStyle=orthogonalEdgeStyle;rounded=0;orthogonalLoop=1;jettySize=auto;html=1;" edge="1" parent="WIyWlLk6GJQsqaUBKTNV-1" source="PMI9C2BxiQQWEbcm79Ut-104">
          <mxGeometry relative="1" as="geometry">
            <mxPoint x="2482.5" y="1468.5" as="targetPoint" />
          </mxGeometry>
        </mxCell>
        <mxCell id="PMI9C2BxiQQWEbcm79Ut-101" value="YES" style="edgeLabel;html=1;align=center;verticalAlign=middle;resizable=0;points=[];" vertex="1" connectable="0" parent="PMI9C2BxiQQWEbcm79Ut-100">
          <mxGeometry x="-0.0545" relative="1" as="geometry">
            <mxPoint as="offset" />
          </mxGeometry>
        </mxCell>
        <mxCell id="PMI9C2BxiQQWEbcm79Ut-102" style="edgeStyle=orthogonalEdgeStyle;rounded=0;orthogonalLoop=1;jettySize=auto;html=1;exitX=0.5;exitY=1;exitDx=0;exitDy=0;" edge="1" parent="WIyWlLk6GJQsqaUBKTNV-1" source="PMI9C2BxiQQWEbcm79Ut-104">
          <mxGeometry relative="1" as="geometry">
            <mxPoint x="2347.38" y="1613.5" as="targetPoint" />
            <mxPoint x="2347.3872463768116" y="1530.991990846682" as="sourcePoint" />
          </mxGeometry>
        </mxCell>
        <mxCell id="PMI9C2BxiQQWEbcm79Ut-103" value="NO" style="edgeLabel;html=1;align=center;verticalAlign=middle;resizable=0;points=[];" vertex="1" connectable="0" parent="PMI9C2BxiQQWEbcm79Ut-102">
          <mxGeometry x="-0.3574" y="2" relative="1" as="geometry">
            <mxPoint as="offset" />
          </mxGeometry>
        </mxCell>
        <mxCell id="PMI9C2BxiQQWEbcm79Ut-104" value="Is &lt;br&gt;Config_Alarm Status &lt;br&gt;flag Set ?" style="rhombus;whiteSpace=wrap;html=1;" vertex="1" parent="WIyWlLk6GJQsqaUBKTNV-1">
          <mxGeometry x="2300" y="1416" width="95" height="105" as="geometry" />
        </mxCell>
        <mxCell id="PMI9C2BxiQQWEbcm79Ut-105" value="" style="edgeStyle=orthogonalEdgeStyle;rounded=0;orthogonalLoop=1;jettySize=auto;html=1;" edge="1" parent="WIyWlLk6GJQsqaUBKTNV-1" source="PMI9C2BxiQQWEbcm79Ut-109" target="PMI9C2BxiQQWEbcm79Ut-110">
          <mxGeometry relative="1" as="geometry" />
        </mxCell>
        <mxCell id="PMI9C2BxiQQWEbcm79Ut-106" value="YES" style="edgeLabel;html=1;align=center;verticalAlign=middle;resizable=0;points=[];" vertex="1" connectable="0" parent="PMI9C2BxiQQWEbcm79Ut-105">
          <mxGeometry x="-0.2346" y="-2" relative="1" as="geometry">
            <mxPoint as="offset" />
          </mxGeometry>
        </mxCell>
        <mxCell id="PMI9C2BxiQQWEbcm79Ut-107" value="" style="edgeStyle=orthogonalEdgeStyle;rounded=0;orthogonalLoop=1;jettySize=auto;html=1;" edge="1" parent="WIyWlLk6GJQsqaUBKTNV-1" source="PMI9C2BxiQQWEbcm79Ut-109" target="PMI9C2BxiQQWEbcm79Ut-111">
          <mxGeometry relative="1" as="geometry" />
        </mxCell>
        <mxCell id="PMI9C2BxiQQWEbcm79Ut-108" value="NO" style="edgeLabel;html=1;align=center;verticalAlign=middle;resizable=0;points=[];" vertex="1" connectable="0" parent="PMI9C2BxiQQWEbcm79Ut-107">
          <mxGeometry x="-0.5333" y="2" relative="1" as="geometry">
            <mxPoint as="offset" />
          </mxGeometry>
        </mxCell>
        <mxCell id="PMI9C2BxiQQWEbcm79Ut-109" value="Is Alarm &lt;br&gt;mins &amp;lt;= 59 ?" style="rhombus;whiteSpace=wrap;html=1;" vertex="1" parent="WIyWlLk6GJQsqaUBKTNV-1">
          <mxGeometry x="2480" y="1418.5" width="90" height="100" as="geometry" />
        </mxCell>
        <mxCell id="PMI9C2BxiQQWEbcm79Ut-123" style="edgeStyle=orthogonalEdgeStyle;rounded=0;orthogonalLoop=1;jettySize=auto;html=1;" edge="1" parent="WIyWlLk6GJQsqaUBKTNV-1" source="PMI9C2BxiQQWEbcm79Ut-110">
          <mxGeometry relative="1" as="geometry">
            <mxPoint x="2740" y="1468.5" as="targetPoint" />
          </mxGeometry>
        </mxCell>
        <mxCell id="PMI9C2BxiQQWEbcm79Ut-110" value="Increase alarm mins by 1" style="rounded=0;whiteSpace=wrap;html=1;" vertex="1" parent="WIyWlLk6GJQsqaUBKTNV-1">
          <mxGeometry x="2625" y="1447" width="70" height="43" as="geometry" />
        </mxCell>
        <mxCell id="PMI9C2BxiQQWEbcm79Ut-122" style="edgeStyle=orthogonalEdgeStyle;rounded=0;orthogonalLoop=1;jettySize=auto;html=1;" edge="1" parent="WIyWlLk6GJQsqaUBKTNV-1" source="PMI9C2BxiQQWEbcm79Ut-111">
          <mxGeometry relative="1" as="geometry">
            <mxPoint x="2740" y="1585.5" as="targetPoint" />
          </mxGeometry>
        </mxCell>
        <mxCell id="PMI9C2BxiQQWEbcm79Ut-111" value="Set Alarm mins to zero" style="whiteSpace=wrap;html=1;" vertex="1" parent="WIyWlLk6GJQsqaUBKTNV-1">
          <mxGeometry x="2487.5" y="1563.5" width="75" height="44" as="geometry" />
        </mxCell>
        <mxCell id="PMI9C2BxiQQWEbcm79Ut-112" style="edgeStyle=orthogonalEdgeStyle;rounded=0;orthogonalLoop=1;jettySize=auto;html=1;" edge="1" parent="WIyWlLk6GJQsqaUBKTNV-1" source="PMI9C2BxiQQWEbcm79Ut-116" target="PMI9C2BxiQQWEbcm79Ut-117">
          <mxGeometry relative="1" as="geometry" />
        </mxCell>
        <mxCell id="PMI9C2BxiQQWEbcm79Ut-113" value="YES" style="edgeLabel;html=1;align=center;verticalAlign=middle;resizable=0;points=[];" vertex="1" connectable="0" parent="PMI9C2BxiQQWEbcm79Ut-112">
          <mxGeometry x="-0.1487" relative="1" as="geometry">
            <mxPoint as="offset" />
          </mxGeometry>
        </mxCell>
        <mxCell id="PMI9C2BxiQQWEbcm79Ut-114" value="" style="edgeStyle=orthogonalEdgeStyle;rounded=0;orthogonalLoop=1;jettySize=auto;html=1;entryX=0.5;entryY=0;entryDx=0;entryDy=0;" edge="1" parent="WIyWlLk6GJQsqaUBKTNV-1" source="PMI9C2BxiQQWEbcm79Ut-116" target="PMI9C2BxiQQWEbcm79Ut-118">
          <mxGeometry relative="1" as="geometry">
            <mxPoint x="2347.5" y="1746.5" as="targetPoint" />
            <Array as="points" />
          </mxGeometry>
        </mxCell>
        <mxCell id="PMI9C2BxiQQWEbcm79Ut-115" value="NO" style="edgeLabel;html=1;align=center;verticalAlign=middle;resizable=0;points=[];" vertex="1" connectable="0" parent="PMI9C2BxiQQWEbcm79Ut-114">
          <mxGeometry x="-0.4852" relative="1" as="geometry">
            <mxPoint as="offset" />
          </mxGeometry>
        </mxCell>
        <mxCell id="PMI9C2BxiQQWEbcm79Ut-116" value="Is Time&lt;br&gt;mins &amp;lt;= 22 ?" style="rhombus;whiteSpace=wrap;html=1;" vertex="1" parent="WIyWlLk6GJQsqaUBKTNV-1">
          <mxGeometry x="2302.5" y="1613.5" width="90" height="100" as="geometry" />
        </mxCell>
        <mxCell id="PMI9C2BxiQQWEbcm79Ut-121" style="edgeStyle=orthogonalEdgeStyle;rounded=0;orthogonalLoop=1;jettySize=auto;html=1;" edge="1" parent="WIyWlLk6GJQsqaUBKTNV-1" source="PMI9C2BxiQQWEbcm79Ut-117">
          <mxGeometry relative="1" as="geometry">
            <mxPoint x="2740" y="1663.5" as="targetPoint" />
          </mxGeometry>
        </mxCell>
        <mxCell id="PMI9C2BxiQQWEbcm79Ut-117" value="Increase time mins by 1" style="rounded=0;whiteSpace=wrap;html=1;" vertex="1" parent="WIyWlLk6GJQsqaUBKTNV-1">
          <mxGeometry x="2490" y="1642" width="70" height="43" as="geometry" />
        </mxCell>
        <mxCell id="PMI9C2BxiQQWEbcm79Ut-120" style="edgeStyle=orthogonalEdgeStyle;rounded=0;orthogonalLoop=1;jettySize=auto;html=1;" edge="1" parent="WIyWlLk6GJQsqaUBKTNV-1" source="PMI9C2BxiQQWEbcm79Ut-118">
          <mxGeometry relative="1" as="geometry">
            <mxPoint x="2740" y="1773.5000000000005" as="targetPoint" />
          </mxGeometry>
        </mxCell>
        <mxCell id="PMI9C2BxiQQWEbcm79Ut-118" value="Set time mins to zero" style="whiteSpace=wrap;html=1;" vertex="1" parent="WIyWlLk6GJQsqaUBKTNV-1">
          <mxGeometry x="2310" y="1751.5" width="75" height="44" as="geometry" />
        </mxCell>
        <mxCell id="PMI9C2BxiQQWEbcm79Ut-124" value="" style="endArrow=classic;html=1;rounded=0;entryX=1;entryY=0.5;entryDx=0;entryDy=0;" edge="1" parent="WIyWlLk6GJQsqaUBKTNV-1" target="PMI9C2BxiQQWEbcm79Ut-28">
          <mxGeometry width="50" height="50" relative="1" as="geometry">
            <mxPoint x="2740" y="1920" as="sourcePoint" />
            <mxPoint x="2400" y="1890" as="targetPoint" />
          </mxGeometry>
        </mxCell>
        <mxCell id="PMI9C2BxiQQWEbcm79Ut-125" value="&lt;font style=&quot;font-size: 22px;&quot;&gt;&lt;b&gt;Main Program Flow-Chart&lt;/b&gt;&lt;/font&gt;" style="rounded=0;whiteSpace=wrap;html=1;" vertex="1" parent="WIyWlLk6GJQsqaUBKTNV-1">
          <mxGeometry x="350" y="2160" width="860" height="60" as="geometry" />
        </mxCell>
        <mxCell id="PMI9C2BxiQQWEbcm79Ut-126" value="&lt;span style=&quot;font-size: 22px;&quot;&gt;&lt;b&gt;GPIO Interrupt Service Routine Flow-Chart&lt;/b&gt;&lt;/span&gt;" style="rounded=0;whiteSpace=wrap;html=1;" vertex="1" parent="WIyWlLk6GJQsqaUBKTNV-1">
          <mxGeometry x="1930" y="2160" width="860" height="60" as="geometry" />
        </mxCell>
      </root>
    </mxGraphModel>
  </diagram>
</mxfile>
